ply
format ascii 1.0
comment Created by Blender 2.82 (sub 7) - www.blender.org, source file: ''
element vertex 486
property float x
property float y
property float z
property float nx
property float ny
property float nz
property float s
property float t
element face 768
property list uchar uint vertex_indices
end_header
-1.000000 -1.000000 1.000000 -1.000000 0.000000 0.000000 0.625000 0.000000
-1.000000 -0.750000 0.750000 -1.000000 0.000000 0.000000 0.593750 0.031250
-1.000000 -1.000000 0.750000 -1.000000 0.000000 0.000000 0.593750 0.000000
-1.000000 1.000000 1.000000 0.000000 1.000000 -0.000000 0.625000 0.250000
-0.750000 1.000000 0.750000 0.000000 1.000000 -0.000000 0.593750 0.281250
-1.000000 1.000000 0.750000 0.000000 1.000000 -0.000000 0.593750 0.250000
1.000000 1.000000 1.000000 1.000000 0.000000 -0.000000 0.625000 0.500000
1.000000 0.750000 0.750000 1.000000 0.000000 -0.000000 0.593750 0.531250
1.000000 1.000000 0.750000 1.000000 0.000000 -0.000000 0.593750 0.500000
1.000000 -1.000000 1.000000 0.000000 -1.000000 0.000000 0.625000 0.750000
0.750000 -1.000000 0.750000 0.000000 -1.000000 0.000000 0.593750 0.781250
1.000000 -1.000000 0.750000 0.000000 -1.000000 0.000000 0.593750 0.750000
1.000000 1.000000 -1.000000 0.000000 0.000000 -1.000000 0.375000 0.500000
0.750000 0.750000 -1.000000 0.000000 0.000000 -1.000000 0.343750 0.531250
0.750000 1.000000 -1.000000 0.000000 0.000000 -1.000000 0.343750 0.500000
-1.000000 1.000000 1.000000 0.000000 0.000000 1.000000 0.875000 0.500000
-0.750000 0.750000 1.000000 0.000000 0.000000 1.000000 0.843750 0.531250
-0.750000 1.000000 1.000000 0.000000 0.000000 1.000000 0.843750 0.500000
-1.000000 -0.750000 1.000000 -1.000000 0.000000 0.000000 0.625000 0.031250
-0.750000 1.000000 1.000000 0.000000 1.000000 -0.000000 0.625000 0.281250
1.000000 0.750000 1.000000 1.000000 0.000000 0.000000 0.625000 0.531250
0.750000 -1.000000 1.000000 0.000000 -1.000000 0.000000 0.625000 0.781250
1.000000 0.750000 -1.000000 0.000000 0.000000 -1.000000 0.375000 0.531250
-1.000000 0.750000 1.000000 0.000000 -0.000000 1.000000 0.875000 0.531250
0.000000 0.000000 1.000000 0.000000 -0.000000 1.000000 0.750000 0.625000
0.000000 -0.250000 1.000000 0.000000 -0.000000 1.000000 0.750000 0.656250
0.250000 -0.250000 1.000000 0.000000 -0.000000 1.000000 0.718750 0.656250
-0.250000 0.000000 1.000000 0.000000 -0.000000 1.000000 0.781250 0.625000
-1.000000 0.000000 1.000000 0.000000 -0.000000 1.000000 0.875000 0.625000
-1.000000 -0.250000 1.000000 0.000000 -0.000000 1.000000 0.875000 0.656250
-0.750000 -0.250000 1.000000 0.000000 -0.000000 1.000000 0.843750 0.656250
0.000000 0.000000 -1.000000 0.000000 0.000000 -1.000000 0.250000 0.625000
0.000000 -0.250000 -1.000000 0.000000 0.000000 -1.000000 0.250000 0.656250
-0.250000 -0.250000 -1.000000 0.000000 0.000000 -1.000000 0.218750 0.656250
0.250000 0.000000 -1.000000 0.000000 0.000000 -1.000000 0.281250 0.625000
1.000000 0.000000 -1.000000 0.000000 0.000000 -1.000000 0.375000 0.625000
1.000000 -0.250000 -1.000000 0.000000 0.000000 -1.000000 0.375000 0.656250
0.750000 -0.250000 -1.000000 0.000000 0.000000 -1.000000 0.343750 0.656250
0.000000 -1.000000 0.000000 0.000000 -1.000000 0.000000 0.500000 0.875000
-0.250000 -1.000000 0.000000 0.000000 -1.000000 0.000000 0.500000 0.906250
-0.250000 -1.000000 -0.250000 0.000000 -1.000000 0.000000 0.468750 0.906250
0.000000 -1.000000 0.250000 0.000000 -1.000000 0.000000 0.531250 0.875000
0.000000 -1.000000 1.000000 0.000000 -1.000000 0.000000 0.625000 0.875000
-0.250000 -1.000000 1.000000 0.000000 -1.000000 0.000000 0.625000 0.906250
-0.250000 -1.000000 0.750000 0.000000 -1.000000 0.000000 0.593750 0.906250
1.000000 0.000000 0.000000 1.000000 0.000000 0.000000 0.500000 0.625000
1.000000 -0.250000 0.000000 1.000000 0.000000 0.000000 0.500000 0.656250
1.000000 -0.250000 -0.250000 1.000000 0.000000 0.000000 0.468750 0.656250
1.000000 0.000000 0.250000 1.000000 -0.000000 0.000000 0.531250 0.625000
1.000000 0.000000 1.000000 1.000000 0.000000 0.000000 0.625000 0.625000
1.000000 -0.250000 1.000000 1.000000 0.000000 0.000000 0.625000 0.656250
1.000000 -0.250000 0.750000 1.000000 0.000000 0.000000 0.593750 0.656250
0.000000 1.000000 0.000000 0.000000 1.000000 -0.000000 0.500000 0.375000
0.250000 1.000000 0.000000 0.000000 1.000000 -0.000000 0.500000 0.406250
0.250000 1.000000 -0.250000 0.000000 1.000000 -0.000000 0.468750 0.406250
0.000000 1.000000 0.250000 0.000000 1.000000 0.000000 0.531250 0.375000
0.000000 1.000000 1.000000 0.000000 1.000000 -0.000000 0.625000 0.375000
0.250000 1.000000 1.000000 0.000000 1.000000 -0.000000 0.625000 0.406250
0.250000 1.000000 0.750000 0.000000 1.000000 -0.000000 0.593750 0.406250
-1.000000 0.000000 0.000000 -1.000000 0.000000 0.000000 0.500000 0.125000
-1.000000 0.250000 0.000000 -1.000000 0.000000 0.000000 0.500000 0.156250
-1.000000 0.250000 -0.250000 -1.000000 0.000000 0.000000 0.468750 0.156250
-1.000000 0.000000 0.250000 -1.000000 -0.000000 -0.000000 0.531250 0.125000
-1.000000 0.000000 1.000000 -1.000000 0.000000 0.000000 0.625000 0.125000
-1.000000 0.250000 1.000000 -1.000000 0.000000 0.000000 0.625000 0.156250
-1.000000 0.250000 0.750000 -1.000000 0.000000 0.000000 0.593750 0.156250
0.000000 1.000000 1.000000 0.000000 0.000000 1.000000 0.750000 0.500000
0.250000 0.750000 1.000000 0.000000 0.000000 1.000000 0.718750 0.531250
0.250000 1.000000 1.000000 0.000000 0.000000 1.000000 0.718750 0.500000
0.000000 0.750000 1.000000 0.000000 -0.000000 1.000000 0.750000 0.531250
0.250000 0.000000 1.000000 0.000000 0.000000 1.000000 0.718750 0.625000
0.000000 1.000000 -1.000000 0.000000 0.000000 -1.000000 0.250000 0.500000
-0.250000 0.750000 -1.000000 0.000000 0.000000 -1.000000 0.218750 0.531250
-0.250000 1.000000 -1.000000 0.000000 0.000000 -1.000000 0.218750 0.500000
0.000000 0.750000 -1.000000 0.000000 0.000000 -1.000000 0.250000 0.531250
-0.250000 0.000000 -1.000000 0.000000 0.000000 -1.000000 0.218750 0.625000
1.000000 -1.000000 0.000000 0.000000 -1.000000 0.000000 0.500000 0.750000
0.750000 -1.000000 -0.250000 0.000000 -1.000000 0.000000 0.468750 0.781250
1.000000 -1.000000 -0.250000 0.000000 -1.000000 0.000000 0.468750 0.750000
0.750000 -1.000000 0.000000 0.000000 -1.000000 0.000000 0.500000 0.781250
0.000000 -1.000000 -0.250000 0.000000 -1.000000 0.000000 0.468750 0.875000
1.000000 1.000000 0.000000 1.000000 0.000000 -0.000000 0.500000 0.500000
1.000000 0.750000 -0.250000 1.000000 0.000000 -0.000000 0.468750 0.531250
1.000000 1.000000 -0.250000 1.000000 0.000000 -0.000000 0.468750 0.500000
1.000000 0.750000 0.000000 1.000000 0.000000 0.000000 0.500000 0.531250
1.000000 0.000000 -0.250000 1.000000 0.000000 -0.000000 0.468750 0.625000
-1.000000 1.000000 0.000000 0.000000 1.000000 -0.000000 0.500000 0.250000
-0.750000 1.000000 -0.250000 0.000000 1.000000 -0.000000 0.468750 0.281250
-1.000000 1.000000 -0.250000 0.000000 1.000000 -0.000000 0.468750 0.250000
-0.750000 1.000000 0.000000 0.000000 1.000000 -0.000000 0.500000 0.281250
0.000000 1.000000 -0.250000 0.000000 1.000000 -0.000000 0.468750 0.375000
-1.000000 -1.000000 0.000000 -1.000000 0.000000 0.000000 0.500000 0.000000
-1.000000 -0.750000 -0.250000 -1.000000 0.000000 0.000000 0.468750 0.031250
-1.000000 -1.000000 -0.250000 -1.000000 0.000000 0.000000 0.468750 0.000000
-1.000000 -0.750000 0.000000 -1.000000 0.000000 0.000000 0.500000 0.031250
-1.000000 0.000000 -0.250000 -1.000000 0.000000 0.000000 0.468750 0.125000
-1.000000 0.000000 -0.500000 -1.000000 0.000000 0.000000 0.437500 0.125000
-1.000000 0.250000 -0.750000 -1.000000 0.000000 0.000000 0.406250 0.156250
-1.000000 0.000000 -0.750000 -1.000000 0.000000 0.000000 0.406250 0.125000
-1.000000 0.250000 -0.500000 -1.000000 0.000000 0.000000 0.437500 0.156250
-1.000000 0.500000 -0.500000 -1.000000 0.000000 0.000000 0.437500 0.187500
-1.000000 0.750000 -0.750000 -1.000000 0.000000 0.000000 0.406250 0.218750
-1.000000 0.500000 -0.750000 -1.000000 0.000000 0.000000 0.406250 0.187500
-1.000000 -0.500000 -0.500000 -1.000000 0.000000 0.000000 0.437500 0.062500
-1.000000 -0.250000 -0.500000 -1.000000 0.000000 0.000000 0.437500 0.093750
-1.000000 -0.250000 -0.750000 -1.000000 0.000000 0.000000 0.406250 0.093750
-1.000000 -0.500000 -0.250000 -1.000000 -0.000000 -0.000000 0.468750 0.062500
-1.000000 -0.500000 0.000000 -1.000000 0.000000 0.000000 0.500000 0.062500
-1.000000 -0.250000 0.000000 -1.000000 0.000000 0.000000 0.500000 0.093750
-1.000000 -0.250000 -0.250000 -1.000000 0.000000 0.000000 0.468750 0.093750
-1.000000 -1.000000 -0.500000 -1.000000 0.000000 0.000000 0.437500 0.000000
-1.000000 -0.750000 -0.750000 -1.000000 0.000000 0.000000 0.406250 0.031250
-1.000000 -1.000000 -0.750000 -1.000000 0.000000 0.000000 0.406250 0.000000
-1.000000 -0.750000 -0.500000 -1.000000 0.000000 0.000000 0.437500 0.031250
-1.000000 -0.500000 -0.750000 -1.000000 0.000000 0.000000 0.406250 0.062500
0.000000 1.000000 -0.500000 0.000000 1.000000 -0.000000 0.437500 0.375000
0.250000 1.000000 -0.750000 0.000000 1.000000 -0.000000 0.406250 0.406250
0.000000 1.000000 -0.750000 0.000000 1.000000 -0.000000 0.406250 0.375000
0.250000 1.000000 -0.500000 0.000000 1.000000 -0.000000 0.437500 0.406250
0.500000 1.000000 -0.500000 0.000000 1.000000 -0.000000 0.437500 0.437500
0.750000 1.000000 -0.750000 0.000000 1.000000 -0.000000 0.406250 0.468750
0.500000 1.000000 -0.750000 0.000000 1.000000 -0.000000 0.406250 0.437500
-0.500000 1.000000 -0.500000 0.000000 1.000000 -0.000000 0.437500 0.312500
-0.250000 1.000000 -0.500000 0.000000 1.000000 -0.000000 0.437500 0.343750
-0.250000 1.000000 -0.750000 0.000000 1.000000 -0.000000 0.406250 0.343750
-0.500000 1.000000 -0.250000 0.000000 1.000000 0.000000 0.468750 0.312500
-0.500000 1.000000 0.000000 0.000000 1.000000 -0.000000 0.500000 0.312500
-0.250000 1.000000 0.000000 0.000000 1.000000 -0.000000 0.500000 0.343750
-0.250000 1.000000 -0.250000 0.000000 1.000000 -0.000000 0.468750 0.343750
-1.000000 1.000000 -0.500000 0.000000 1.000000 -0.000000 0.437500 0.250000
-0.750000 1.000000 -0.750000 0.000000 1.000000 -0.000000 0.406250 0.281250
-1.000000 1.000000 -0.750000 0.000000 1.000000 -0.000000 0.406250 0.250000
-0.750000 1.000000 -0.500000 0.000000 1.000000 -0.000000 0.437500 0.281250
-0.500000 1.000000 -0.750000 0.000000 1.000000 -0.000000 0.406250 0.312500
1.000000 0.000000 -0.500000 1.000000 0.000000 -0.000000 0.437500 0.625000
1.000000 -0.250000 -0.750000 1.000000 0.000000 -0.000000 0.406250 0.656250
1.000000 0.000000 -0.750000 1.000000 0.000000 -0.000000 0.406250 0.625000
1.000000 -0.250000 -0.500000 1.000000 0.000000 0.000000 0.437500 0.656250
1.000000 -0.500000 -0.500000 1.000000 0.000000 -0.000000 0.437500 0.687500
1.000000 -0.750000 -0.750000 1.000000 0.000000 -0.000000 0.406250 0.718750
1.000000 -0.500000 -0.750000 1.000000 0.000000 -0.000000 0.406250 0.687500
1.000000 0.500000 -0.500000 1.000000 0.000000 0.000000 0.437500 0.562500
1.000000 0.250000 -0.500000 1.000000 0.000000 0.000000 0.437500 0.593750
1.000000 0.250000 -0.750000 1.000000 0.000000 0.000000 0.406250 0.593750
1.000000 0.500000 -0.250000 1.000000 -0.000000 0.000000 0.468750 0.562500
1.000000 0.500000 0.000000 1.000000 0.000000 0.000000 0.500000 0.562500
1.000000 0.250000 0.000000 1.000000 0.000000 0.000000 0.500000 0.593750
1.000000 0.250000 -0.250000 1.000000 0.000000 0.000000 0.468750 0.593750
1.000000 1.000000 -0.500000 1.000000 0.000000 -0.000000 0.437500 0.500000
1.000000 0.750000 -0.750000 1.000000 0.000000 -0.000000 0.406250 0.531250
1.000000 1.000000 -0.750000 1.000000 0.000000 -0.000000 0.406250 0.500000
1.000000 0.750000 -0.500000 1.000000 0.000000 0.000000 0.437500 0.531250
1.000000 0.500000 -0.750000 1.000000 0.000000 -0.000000 0.406250 0.562500
0.000000 -1.000000 -0.500000 0.000000 -1.000000 0.000000 0.437500 0.875000
-0.250000 -1.000000 -0.750000 0.000000 -1.000000 0.000000 0.406250 0.906250
0.000000 -1.000000 -0.750000 0.000000 -1.000000 0.000000 0.406250 0.875000
-0.250000 -1.000000 -0.500000 0.000000 -1.000000 0.000000 0.437500 0.906250
-0.500000 -1.000000 -0.500000 0.000000 -1.000000 0.000000 0.437500 0.937500
-0.750000 -1.000000 -0.750000 0.000000 -1.000000 0.000000 0.406250 0.968750
-0.500000 -1.000000 -0.750000 0.000000 -1.000000 0.000000 0.406250 0.937500
0.500000 -1.000000 -0.500000 0.000000 -1.000000 0.000000 0.437500 0.812500
0.250000 -1.000000 -0.500000 0.000000 -1.000000 0.000000 0.437500 0.843750
0.250000 -1.000000 -0.750000 0.000000 -1.000000 0.000000 0.406250 0.843750
0.500000 -1.000000 -0.250000 0.000000 -1.000000 0.000000 0.468750 0.812500
0.500000 -1.000000 0.000000 0.000000 -1.000000 0.000000 0.500000 0.812500
0.250000 -1.000000 0.000000 0.000000 -1.000000 0.000000 0.500000 0.843750
0.250000 -1.000000 -0.250000 0.000000 -1.000000 0.000000 0.468750 0.843750
1.000000 -1.000000 -0.500000 0.000000 -1.000000 0.000000 0.437500 0.750000
0.750000 -1.000000 -0.750000 0.000000 -1.000000 0.000000 0.406250 0.781250
1.000000 -1.000000 -0.750000 0.000000 -1.000000 0.000000 0.406250 0.750000
0.750000 -1.000000 -0.500000 0.000000 -1.000000 0.000000 0.437500 0.781250
0.500000 -1.000000 -0.750000 0.000000 -1.000000 0.000000 0.406250 0.812500
-0.500000 0.000000 -1.000000 0.000000 0.000000 -1.000000 0.187500 0.625000
-0.750000 -0.250000 -1.000000 0.000000 0.000000 -1.000000 0.156250 0.656250
-0.750000 0.000000 -1.000000 0.000000 0.000000 -1.000000 0.156250 0.625000
-0.500000 -0.250000 -1.000000 0.000000 0.000000 -1.000000 0.187500 0.656250
-0.500000 -0.500000 -1.000000 0.000000 0.000000 -1.000000 0.187500 0.687500
-0.750000 -0.750000 -1.000000 0.000000 0.000000 -1.000000 0.156250 0.718750
-0.750000 -0.500000 -1.000000 0.000000 0.000000 -1.000000 0.156250 0.687500
-0.500000 0.500000 -1.000000 0.000000 0.000000 -1.000000 0.187500 0.562500
-0.500000 0.250000 -1.000000 0.000000 0.000000 -1.000000 0.187500 0.593750
-0.750000 0.250000 -1.000000 0.000000 0.000000 -1.000000 0.156250 0.593750
-0.250000 0.500000 -1.000000 0.000000 0.000000 -1.000000 0.218750 0.562500
0.000000 0.500000 -1.000000 0.000000 0.000000 -1.000000 0.250000 0.562500
0.000000 0.250000 -1.000000 0.000000 0.000000 -1.000000 0.250000 0.593750
-0.250000 0.250000 -1.000000 0.000000 0.000000 -1.000000 0.218750 0.593750
-0.500000 1.000000 -1.000000 0.000000 0.000000 -1.000000 0.187500 0.500000
-0.750000 0.750000 -1.000000 0.000000 0.000000 -1.000000 0.156250 0.531250
-0.750000 1.000000 -1.000000 0.000000 0.000000 -1.000000 0.156250 0.500000
-0.500000 0.750000 -1.000000 0.000000 0.000000 -1.000000 0.187500 0.531250
-0.750000 0.500000 -1.000000 0.000000 0.000000 -1.000000 0.156250 0.562500
0.500000 0.000000 1.000000 0.000000 0.000000 1.000000 0.687500 0.625000
0.750000 -0.250000 1.000000 0.000000 0.000000 1.000000 0.656250 0.656250
0.750000 0.000000 1.000000 0.000000 0.000000 1.000000 0.656250 0.625000
0.500000 -0.250000 1.000000 0.000000 -0.000000 1.000000 0.687500 0.656250
0.500000 -0.500000 1.000000 0.000000 0.000000 1.000000 0.687500 0.687500
0.750000 -0.750000 1.000000 0.000000 0.000000 1.000000 0.656250 0.718750
0.750000 -0.500000 1.000000 0.000000 0.000000 1.000000 0.656250 0.687500
0.500000 0.500000 1.000000 0.000000 -0.000000 1.000000 0.687500 0.562500
0.500000 0.250000 1.000000 0.000000 -0.000000 1.000000 0.687500 0.593750
0.750000 0.250000 1.000000 0.000000 -0.000000 1.000000 0.656250 0.593750
0.250000 0.500000 1.000000 0.000000 -0.000000 1.000000 0.718750 0.562500
0.000000 0.500000 1.000000 0.000000 -0.000000 1.000000 0.750000 0.562500
0.000000 0.250000 1.000000 0.000000 -0.000000 1.000000 0.750000 0.593750
0.250000 0.250000 1.000000 0.000000 -0.000000 1.000000 0.718750 0.593750
0.500000 1.000000 1.000000 0.000000 0.000000 1.000000 0.687500 0.500000
0.750000 0.750000 1.000000 0.000000 0.000000 1.000000 0.656250 0.531250
0.750000 1.000000 1.000000 0.000000 0.000000 1.000000 0.656250 0.500000
0.500000 0.750000 1.000000 0.000000 -0.000000 1.000000 0.687500 0.531250
0.750000 0.500000 1.000000 0.000000 0.000000 1.000000 0.656250 0.562500
-1.000000 0.500000 0.500000 -1.000000 0.000000 0.000000 0.562500 0.187500
-1.000000 0.750000 0.500000 -1.000000 0.000000 0.000000 0.562500 0.218750
-1.000000 0.750000 0.250000 -1.000000 0.000000 0.000000 0.531250 0.218750
-1.000000 0.500000 0.750000 -1.000000 -0.000000 -0.000000 0.593750 0.187500
-1.000000 0.500000 1.000000 -1.000000 0.000000 0.000000 0.625000 0.187500
-1.000000 0.750000 1.000000 -1.000000 0.000000 0.000000 0.625000 0.218750
-1.000000 0.750000 0.750000 -1.000000 0.000000 0.000000 0.593750 0.218750
-1.000000 0.500000 0.000000 -1.000000 -0.000000 -0.000000 0.500000 0.187500
-1.000000 0.500000 0.250000 -1.000000 -0.000000 -0.000000 0.531250 0.187500
-1.000000 0.750000 0.000000 -1.000000 -0.000000 -0.000000 0.500000 0.218750
-1.000000 0.250000 0.250000 -1.000000 -0.000000 -0.000000 0.531250 0.156250
-1.000000 0.000000 0.500000 -1.000000 -0.000000 -0.000000 0.562500 0.125000
-1.000000 0.000000 0.750000 -1.000000 -0.000000 -0.000000 0.593750 0.125000
-1.000000 0.250000 0.500000 -1.000000 -0.000000 -0.000000 0.562500 0.156250
-1.000000 0.750000 -0.500000 -1.000000 0.000000 0.000000 0.437500 0.218750
-1.000000 0.500000 -0.250000 -1.000000 -0.000000 -0.000000 0.468750 0.187500
-1.000000 0.750000 -0.250000 -1.000000 0.000000 0.000000 0.468750 0.218750
0.500000 1.000000 0.500000 0.000000 1.000000 -0.000000 0.562500 0.437500
0.750000 1.000000 0.500000 0.000000 1.000000 -0.000000 0.562500 0.468750
0.750000 1.000000 0.250000 0.000000 1.000000 -0.000000 0.531250 0.468750
0.500000 1.000000 0.750000 0.000000 1.000000 0.000000 0.593750 0.437500
0.500000 1.000000 1.000000 0.000000 1.000000 -0.000000 0.625000 0.437500
0.750000 1.000000 1.000000 0.000000 1.000000 -0.000000 0.625000 0.468750
0.750000 1.000000 0.750000 0.000000 1.000000 -0.000000 0.593750 0.468750
0.500000 1.000000 0.000000 0.000000 1.000000 0.000000 0.500000 0.437500
0.500000 1.000000 0.250000 0.000000 1.000000 0.000000 0.531250 0.437500
0.750000 1.000000 0.000000 0.000000 1.000000 0.000000 0.500000 0.468750
0.250000 1.000000 0.250000 0.000000 1.000000 0.000000 0.531250 0.406250
0.000000 1.000000 0.500000 0.000000 1.000000 0.000000 0.562500 0.375000
0.000000 1.000000 0.750000 0.000000 1.000000 0.000000 0.593750 0.375000
0.250000 1.000000 0.500000 0.000000 1.000000 0.000000 0.562500 0.406250
0.750000 1.000000 -0.500000 0.000000 1.000000 -0.000000 0.437500 0.468750
0.500000 1.000000 -0.250000 0.000000 1.000000 0.000000 0.468750 0.437500
0.750000 1.000000 -0.250000 0.000000 1.000000 -0.000000 0.468750 0.468750
1.000000 -0.500000 0.500000 1.000000 0.000000 0.000000 0.562500 0.687500
1.000000 -0.750000 0.500000 1.000000 0.000000 0.000000 0.562500 0.718750
1.000000 -0.750000 0.250000 1.000000 0.000000 0.000000 0.531250 0.718750
1.000000 -0.500000 0.750000 1.000000 -0.000000 0.000000 0.593750 0.687500
1.000000 -0.500000 1.000000 1.000000 0.000000 0.000000 0.625000 0.687500
1.000000 -0.750000 1.000000 1.000000 0.000000 0.000000 0.625000 0.718750
1.000000 -0.750000 0.750000 1.000000 0.000000 0.000000 0.593750 0.718750
1.000000 -0.500000 0.000000 1.000000 -0.000000 0.000000 0.500000 0.687500
1.000000 -0.500000 0.250000 1.000000 -0.000000 0.000000 0.531250 0.687500
1.000000 -0.750000 0.000000 1.000000 -0.000000 0.000000 0.500000 0.718750
1.000000 -0.250000 0.250000 1.000000 -0.000000 0.000000 0.531250 0.656250
1.000000 0.000000 0.500000 1.000000 -0.000000 0.000000 0.562500 0.625000
1.000000 0.000000 0.750000 1.000000 -0.000000 0.000000 0.593750 0.625000
1.000000 -0.250000 0.500000 1.000000 -0.000000 0.000000 0.562500 0.656250
1.000000 -0.750000 -0.500000 1.000000 0.000000 0.000000 0.437500 0.718750
1.000000 -0.500000 -0.250000 1.000000 -0.000000 0.000000 0.468750 0.687500
1.000000 -0.750000 -0.250000 1.000000 0.000000 0.000000 0.468750 0.718750
-0.500000 -1.000000 0.500000 0.000000 -1.000000 0.000000 0.562500 0.937500
-0.750000 -1.000000 0.500000 0.000000 -1.000000 0.000000 0.562500 0.968750
-0.750000 -1.000000 0.250000 0.000000 -1.000000 0.000000 0.531250 0.968750
-0.500000 -1.000000 0.750000 0.000000 -1.000000 0.000000 0.593750 0.937500
-0.500000 -1.000000 1.000000 0.000000 -1.000000 0.000000 0.625000 0.937500
-0.750000 -1.000000 1.000000 0.000000 -1.000000 0.000000 0.625000 0.968750
-0.750000 -1.000000 0.750000 0.000000 -1.000000 0.000000 0.593750 0.968750
-0.500000 -1.000000 0.000000 0.000000 -1.000000 0.000000 0.500000 0.937500
-0.500000 -1.000000 0.250000 0.000000 -1.000000 0.000000 0.531250 0.937500
-0.750000 -1.000000 0.000000 0.000000 -1.000000 0.000000 0.500000 0.968750
-0.250000 -1.000000 0.250000 0.000000 -1.000000 -0.000000 0.531250 0.906250
0.000000 -1.000000 0.500000 0.000000 -1.000000 0.000000 0.562500 0.875000
0.000000 -1.000000 0.750000 0.000000 -1.000000 0.000000 0.593750 0.875000
-0.250000 -1.000000 0.500000 0.000000 -1.000000 0.000000 0.562500 0.906250
-0.750000 -1.000000 -0.500000 0.000000 -1.000000 0.000000 0.437500 0.968750
-0.500000 -1.000000 -0.250000 0.000000 -1.000000 0.000000 0.468750 0.937500
-0.750000 -1.000000 -0.250000 0.000000 -1.000000 0.000000 0.468750 0.968750
0.500000 -0.500000 -1.000000 0.000000 0.000000 -1.000000 0.312500 0.687500
0.500000 -0.750000 -1.000000 0.000000 0.000000 -1.000000 0.312500 0.718750
0.250000 -0.750000 -1.000000 0.000000 0.000000 -1.000000 0.281250 0.718750
0.750000 -0.500000 -1.000000 0.000000 0.000000 -1.000000 0.343750 0.687500
1.000000 -0.500000 -1.000000 0.000000 0.000000 -1.000000 0.375000 0.687500
1.000000 -0.750000 -1.000000 0.000000 0.000000 -1.000000 0.375000 0.718750
0.750000 -0.750000 -1.000000 0.000000 0.000000 -1.000000 0.343750 0.718750
0.000000 -0.500000 -1.000000 0.000000 0.000000 -1.000000 0.250000 0.687500
0.250000 -0.500000 -1.000000 0.000000 0.000000 -1.000000 0.281250 0.687500
0.000000 -0.750000 -1.000000 0.000000 0.000000 -1.000000 0.250000 0.718750
0.250000 -0.250000 -1.000000 -0.000000 0.000000 -1.000000 0.281250 0.656250
0.500000 0.000000 -1.000000 0.000000 0.000000 -1.000000 0.312500 0.625000
0.750000 0.000000 -1.000000 0.000000 0.000000 -1.000000 0.343750 0.625000
0.500000 -0.250000 -1.000000 0.000000 0.000000 -1.000000 0.312500 0.656250
-0.500000 -0.750000 -1.000000 0.000000 0.000000 -1.000000 0.187500 0.718750
-0.250000 -0.500000 -1.000000 0.000000 0.000000 -1.000000 0.218750 0.687500
-0.250000 -0.750000 -1.000000 0.000000 0.000000 -1.000000 0.218750 0.718750
-0.500000 -0.500000 1.000000 0.000000 -0.000000 1.000000 0.812500 0.687500
-0.500000 -0.750000 1.000000 0.000000 -0.000000 1.000000 0.812500 0.718750
-0.250000 -0.750000 1.000000 0.000000 -0.000000 1.000000 0.781250 0.718750
-0.750000 -0.500000 1.000000 0.000000 -0.000000 1.000000 0.843750 0.687500
-1.000000 -0.500000 1.000000 0.000000 -0.000000 1.000000 0.875000 0.687500
-1.000000 -0.750000 1.000000 0.000000 -0.000000 1.000000 0.875000 0.718750
-0.750000 -0.750000 1.000000 0.000000 -0.000000 1.000000 0.843750 0.718750
0.000000 -0.500000 1.000000 0.000000 -0.000000 1.000000 0.750000 0.687500
-0.250000 -0.500000 1.000000 0.000000 -0.000000 1.000000 0.781250 0.687500
0.000000 -0.750000 1.000000 0.000000 -0.000000 1.000000 0.750000 0.718750
-0.250000 -0.250000 1.000000 -0.000000 0.000000 1.000000 0.781250 0.656250
-0.500000 0.000000 1.000000 0.000000 -0.000000 1.000000 0.812500 0.625000
-0.750000 0.000000 1.000000 0.000000 -0.000000 1.000000 0.843750 0.625000
-0.500000 -0.250000 1.000000 0.000000 -0.000000 1.000000 0.812500 0.656250
0.500000 -0.750000 1.000000 0.000000 -0.000000 1.000000 0.687500 0.718750
0.250000 -0.500000 1.000000 0.000000 -0.000000 1.000000 0.718750 0.687500
0.250000 -0.750000 1.000000 0.000000 -0.000000 1.000000 0.718750 0.718750
-0.500000 0.500000 1.000000 0.000000 -0.000000 1.000000 0.812500 0.562500
-0.500000 0.250000 1.000000 0.000000 -0.000000 1.000000 0.812500 0.593750
-0.250000 0.250000 1.000000 0.000000 -0.000000 1.000000 0.781250 0.593750
-0.750000 0.500000 1.000000 0.000000 -0.000000 1.000000 0.843750 0.562500
-1.000000 0.500000 1.000000 0.000000 -0.000000 1.000000 0.875000 0.562500
-1.000000 0.250000 1.000000 0.000000 -0.000000 1.000000 0.875000 0.593750
-0.750000 0.250000 1.000000 0.000000 -0.000000 1.000000 0.843750 0.593750
0.500000 0.500000 -1.000000 0.000000 0.000000 -1.000000 0.312500 0.562500
0.500000 0.250000 -1.000000 0.000000 0.000000 -1.000000 0.312500 0.593750
0.250000 0.250000 -1.000000 0.000000 0.000000 -1.000000 0.281250 0.593750
0.750000 0.500000 -1.000000 0.000000 0.000000 -1.000000 0.343750 0.562500
1.000000 0.500000 -1.000000 0.000000 0.000000 -1.000000 0.375000 0.562500
1.000000 0.250000 -1.000000 0.000000 0.000000 -1.000000 0.375000 0.593750
0.750000 0.250000 -1.000000 0.000000 0.000000 -1.000000 0.343750 0.593750
0.500000 -1.000000 0.500000 0.000000 -1.000000 0.000000 0.562500 0.812500
0.250000 -1.000000 0.500000 0.000000 -1.000000 0.000000 0.562500 0.843750
0.250000 -1.000000 0.250000 0.000000 -1.000000 0.000000 0.531250 0.843750
0.500000 -1.000000 0.750000 0.000000 -1.000000 0.000000 0.593750 0.812500
0.500000 -1.000000 1.000000 0.000000 -1.000000 0.000000 0.625000 0.812500
0.250000 -1.000000 1.000000 0.000000 -1.000000 0.000000 0.625000 0.843750
0.250000 -1.000000 0.750000 0.000000 -1.000000 0.000000 0.593750 0.843750
1.000000 0.500000 0.500000 1.000000 0.000000 0.000000 0.562500 0.562500
1.000000 0.250000 0.500000 1.000000 0.000000 0.000000 0.562500 0.593750
1.000000 0.250000 0.250000 1.000000 0.000000 0.000000 0.531250 0.593750
1.000000 0.500000 0.750000 1.000000 -0.000000 0.000000 0.593750 0.562500
1.000000 0.500000 1.000000 1.000000 0.000000 0.000000 0.625000 0.562500
1.000000 0.250000 1.000000 1.000000 0.000000 0.000000 0.625000 0.593750
1.000000 0.250000 0.750000 1.000000 0.000000 0.000000 0.593750 0.593750
-0.500000 1.000000 0.500000 0.000000 1.000000 -0.000000 0.562500 0.312500
-0.250000 1.000000 0.500000 0.000000 1.000000 -0.000000 0.562500 0.343750
-0.250000 1.000000 0.250000 0.000000 1.000000 -0.000000 0.531250 0.343750
-0.500000 1.000000 0.750000 0.000000 1.000000 0.000000 0.593750 0.312500
-0.500000 1.000000 1.000000 0.000000 1.000000 -0.000000 0.625000 0.312500
-0.250000 1.000000 1.000000 0.000000 1.000000 -0.000000 0.625000 0.343750
-0.250000 1.000000 0.750000 0.000000 1.000000 -0.000000 0.593750 0.343750
-1.000000 -0.500000 0.500000 -1.000000 0.000000 0.000000 0.562500 0.062500
-1.000000 -0.250000 0.500000 -1.000000 0.000000 0.000000 0.562500 0.093750
-1.000000 -0.250000 0.250000 -1.000000 0.000000 0.000000 0.531250 0.093750
-1.000000 -0.500000 0.750000 -1.000000 -0.000000 -0.000000 0.593750 0.062500
-1.000000 -0.500000 1.000000 -1.000000 0.000000 0.000000 0.625000 0.062500
-1.000000 -0.250000 1.000000 -1.000000 0.000000 0.000000 0.625000 0.093750
-1.000000 -0.250000 0.750000 -1.000000 0.000000 0.000000 0.593750 0.093750
-0.500000 1.000000 1.000000 0.000000 0.000000 1.000000 0.812500 0.500000
-0.250000 0.750000 1.000000 0.000000 0.000000 1.000000 0.781250 0.531250
-0.250000 1.000000 1.000000 0.000000 0.000000 1.000000 0.781250 0.500000
-0.500000 0.750000 1.000000 0.000000 -0.000000 1.000000 0.812500 0.531250
-0.250000 0.500000 1.000000 0.000000 0.000000 1.000000 0.781250 0.562500
0.500000 1.000000 -1.000000 0.000000 0.000000 -1.000000 0.312500 0.500000
0.250000 0.750000 -1.000000 0.000000 0.000000 -1.000000 0.281250 0.531250
0.250000 1.000000 -1.000000 0.000000 0.000000 -1.000000 0.281250 0.500000
0.500000 0.750000 -1.000000 0.000000 0.000000 -1.000000 0.312500 0.531250
0.250000 0.500000 -1.000000 0.000000 0.000000 -1.000000 0.281250 0.562500
1.000000 -1.000000 0.500000 0.000000 -1.000000 0.000000 0.562500 0.750000
0.750000 -1.000000 0.250000 0.000000 -1.000000 0.000000 0.531250 0.781250
1.000000 -1.000000 0.250000 0.000000 -1.000000 0.000000 0.531250 0.750000
0.750000 -1.000000 0.500000 0.000000 -1.000000 0.000000 0.562500 0.781250
0.500000 -1.000000 0.250000 0.000000 -1.000000 0.000000 0.531250 0.812500
1.000000 1.000000 0.500000 1.000000 0.000000 -0.000000 0.562500 0.500000
1.000000 0.750000 0.250000 1.000000 0.000000 -0.000000 0.531250 0.531250
1.000000 1.000000 0.250000 1.000000 0.000000 -0.000000 0.531250 0.500000
1.000000 0.750000 0.500000 1.000000 0.000000 0.000000 0.562500 0.531250
1.000000 0.500000 0.250000 1.000000 0.000000 -0.000000 0.531250 0.562500
-1.000000 1.000000 0.500000 0.000000 1.000000 -0.000000 0.562500 0.250000
-0.750000 1.000000 0.250000 0.000000 1.000000 -0.000000 0.531250 0.281250
-1.000000 1.000000 0.250000 0.000000 1.000000 -0.000000 0.531250 0.250000
-0.750000 1.000000 0.500000 0.000000 1.000000 -0.000000 0.562500 0.281250
-0.500000 1.000000 0.250000 0.000000 1.000000 -0.000000 0.531250 0.312500
-1.000000 -1.000000 0.500000 -1.000000 0.000000 0.000000 0.562500 0.000000
-1.000000 -0.750000 0.250000 -1.000000 0.000000 0.000000 0.531250 0.031250
-1.000000 -1.000000 0.250000 -1.000000 0.000000 0.000000 0.531250 0.000000
-1.000000 -0.750000 0.500000 -1.000000 0.000000 0.000000 0.562500 0.031250
-1.000000 -0.500000 0.250000 -1.000000 0.000000 0.000000 0.531250 0.062500
0.250000 -1.000000 1.000000 0.000000 -0.000000 1.000000 0.718750 0.750000
0.500000 -1.000000 1.000000 0.000000 -0.000000 1.000000 0.687500 0.750000
0.000000 -1.000000 1.000000 0.000000 -0.000000 1.000000 0.750000 0.750000
0.750000 -1.000000 1.000000 0.000000 -0.000000 1.000000 0.656250 0.750000
1.000000 -1.000000 1.000000 0.000000 -0.000000 1.000000 0.625000 0.750000
-0.750000 -1.000000 1.000000 0.000000 -0.000000 1.000000 0.843750 0.750000
-0.500000 -1.000000 1.000000 0.000000 -0.000000 1.000000 0.812500 0.750000
-1.000000 -1.000000 1.000000 0.000000 -0.000000 1.000000 0.875000 0.750000
-0.250000 -1.000000 1.000000 0.000000 -0.000000 1.000000 0.781250 0.750000
-0.250000 -1.000000 -1.000000 0.000000 0.000000 -1.000000 0.218750 0.750000
-0.500000 -1.000000 -1.000000 0.000000 0.000000 -1.000000 0.187500 0.750000
0.000000 -1.000000 -1.000000 0.000000 0.000000 -1.000000 0.250000 0.750000
-0.750000 -1.000000 -1.000000 0.000000 0.000000 -1.000000 0.156250 0.750000
-1.000000 -1.000000 -1.000000 0.000000 0.000000 -1.000000 0.125000 0.750000
0.750000 -1.000000 -1.000000 0.000000 0.000000 -1.000000 0.343750 0.750000
0.500000 -1.000000 -1.000000 0.000000 0.000000 -1.000000 0.312500 0.750000
1.000000 -1.000000 -1.000000 0.000000 0.000000 -1.000000 0.375000 0.750000
0.250000 -1.000000 -1.000000 0.000000 0.000000 -1.000000 0.281250 0.750000
-1.000000 -1.000000 -0.250000 0.000000 -1.000000 0.000000 0.468750 1.000000
-1.000000 -1.000000 -0.500000 0.000000 -1.000000 0.000000 0.437500 1.000000
-1.000000 -1.000000 0.000000 0.000000 -1.000000 0.000000 0.500000 1.000000
-1.000000 -1.000000 -0.750000 0.000000 -1.000000 0.000000 0.406250 1.000000
-1.000000 -1.000000 -1.000000 0.000000 -1.000000 0.000000 0.375000 1.000000
-1.000000 -1.000000 0.750000 0.000000 -1.000000 0.000000 0.593750 1.000000
-1.000000 -1.000000 0.500000 0.000000 -1.000000 0.000000 0.562500 1.000000
-1.000000 -1.000000 1.000000 0.000000 -1.000000 0.000000 0.625000 1.000000
-1.000000 -1.000000 0.250000 0.000000 -1.000000 0.000000 0.531250 1.000000
1.000000 -1.000000 -0.250000 1.000000 0.000000 0.000000 0.468750 0.750000
1.000000 -1.000000 -0.500000 1.000000 0.000000 0.000000 0.437500 0.750000
1.000000 -1.000000 0.000000 1.000000 0.000000 0.000000 0.500000 0.750000
1.000000 -1.000000 -0.750000 1.000000 0.000000 0.000000 0.406250 0.750000
1.000000 -1.000000 -1.000000 1.000000 0.000000 0.000000 0.375000 0.750000
1.000000 -1.000000 0.750000 1.000000 0.000000 0.000000 0.593750 0.750000
1.000000 -1.000000 0.500000 1.000000 0.000000 0.000000 0.562500 0.750000
1.000000 -1.000000 1.000000 1.000000 0.000000 0.000000 0.625000 0.750000
1.000000 -1.000000 0.250000 1.000000 0.000000 0.000000 0.531250 0.750000
1.000000 1.000000 -0.250000 0.000000 1.000000 -0.000000 0.468750 0.500000
1.000000 1.000000 -0.500000 0.000000 1.000000 -0.000000 0.437500 0.500000
1.000000 1.000000 0.000000 0.000000 1.000000 -0.000000 0.500000 0.500000
1.000000 1.000000 -0.750000 0.000000 1.000000 -0.000000 0.406250 0.500000
1.000000 1.000000 -1.000000 0.000000 1.000000 -0.000000 0.375000 0.500000
1.000000 1.000000 0.750000 0.000000 1.000000 -0.000000 0.593750 0.500000
1.000000 1.000000 0.500000 0.000000 1.000000 -0.000000 0.562500 0.500000
1.000000 1.000000 1.000000 0.000000 1.000000 -0.000000 0.625000 0.500000
1.000000 1.000000 0.250000 0.000000 1.000000 -0.000000 0.531250 0.500000
-1.000000 1.000000 -0.250000 -1.000000 0.000000 0.000000 0.468750 0.250000
-1.000000 1.000000 -0.500000 -1.000000 0.000000 0.000000 0.437500 0.250000
-1.000000 1.000000 0.000000 -1.000000 0.000000 0.000000 0.500000 0.250000
-1.000000 1.000000 -0.750000 -1.000000 0.000000 0.000000 0.406250 0.250000
-1.000000 1.000000 -1.000000 -1.000000 0.000000 0.000000 0.375000 0.250000
-1.000000 1.000000 0.750000 -1.000000 0.000000 0.000000 0.593750 0.250000
-1.000000 1.000000 0.500000 -1.000000 0.000000 0.000000 0.562500 0.250000
-1.000000 1.000000 1.000000 -1.000000 0.000000 0.000000 0.625000 0.250000
-1.000000 1.000000 0.250000 -1.000000 0.000000 0.000000 0.531250 0.250000
1.000000 0.250000 1.000000 0.000000 0.000000 1.000000 0.625000 0.593750
1.000000 0.500000 1.000000 0.000000 0.000000 1.000000 0.625000 0.562500
1.000000 0.000000 1.000000 0.000000 0.000000 1.000000 0.625000 0.625000
1.000000 0.750000 1.000000 0.000000 0.000000 1.000000 0.625000 0.531250
1.000000 1.000000 1.000000 0.000000 0.000000 1.000000 0.625000 0.500000
1.000000 -0.750000 1.000000 0.000000 0.000000 1.000000 0.625000 0.718750
1.000000 -0.500000 1.000000 0.000000 0.000000 1.000000 0.625000 0.687500
1.000000 -0.250000 1.000000 0.000000 0.000000 1.000000 0.625000 0.656250
-1.000000 0.250000 -1.000000 0.000000 0.000000 -1.000000 0.125000 0.593750
-1.000000 0.500000 -1.000000 0.000000 0.000000 -1.000000 0.125000 0.562500
-1.000000 0.000000 -1.000000 0.000000 0.000000 -1.000000 0.125000 0.625000
-1.000000 0.750000 -1.000000 0.000000 0.000000 -1.000000 0.125000 0.531250
-1.000000 1.000000 -1.000000 0.000000 0.000000 -1.000000 0.125000 0.500000
-1.000000 -0.750000 -1.000000 0.000000 0.000000 -1.000000 0.125000 0.718750
-1.000000 -0.500000 -1.000000 0.000000 0.000000 -1.000000 0.125000 0.687500
-1.000000 -0.250000 -1.000000 0.000000 0.000000 -1.000000 0.125000 0.656250
0.250000 -1.000000 -1.000000 0.000000 -1.000000 0.000000 0.375000 0.843750
0.500000 -1.000000 -1.000000 0.000000 -1.000000 0.000000 0.375000 0.812500
0.000000 -1.000000 -1.000000 0.000000 -1.000000 0.000000 0.375000 0.875000
0.750000 -1.000000 -1.000000 0.000000 -1.000000 0.000000 0.375000 0.781250
1.000000 -1.000000 -1.000000 0.000000 -1.000000 0.000000 0.375000 0.750000
-0.750000 -1.000000 -1.000000 0.000000 -1.000000 0.000000 0.375000 0.968750
-0.500000 -1.000000 -1.000000 0.000000 -1.000000 0.000000 0.375000 0.937500
-0.250000 -1.000000 -1.000000 0.000000 -1.000000 0.000000 0.375000 0.906250
1.000000 0.250000 -1.000000 1.000000 0.000000 -0.000000 0.375000 0.593750
1.000000 0.500000 -1.000000 1.000000 0.000000 -0.000000 0.375000 0.562500
1.000000 0.000000 -1.000000 1.000000 0.000000 -0.000000 0.375000 0.625000
1.000000 0.750000 -1.000000 1.000000 0.000000 -0.000000 0.375000 0.531250
1.000000 1.000000 -1.000000 1.000000 0.000000 -0.000000 0.375000 0.500000
1.000000 -0.750000 -1.000000 1.000000 0.000000 -0.000000 0.375000 0.718750
1.000000 -0.500000 -1.000000 1.000000 0.000000 -0.000000 0.375000 0.687500
1.000000 -0.250000 -1.000000 1.000000 0.000000 -0.000000 0.375000 0.656250
-0.250000 1.000000 -1.000000 0.000000 1.000000 -0.000000 0.375000 0.343750
-0.500000 1.000000 -1.000000 0.000000 1.000000 -0.000000 0.375000 0.312500
0.000000 1.000000 -1.000000 0.000000 1.000000 -0.000000 0.375000 0.375000
-0.750000 1.000000 -1.000000 0.000000 1.000000 -0.000000 0.375000 0.281250
-1.000000 1.000000 -1.000000 0.000000 1.000000 -0.000000 0.375000 0.250000
0.750000 1.000000 -1.000000 0.000000 1.000000 -0.000000 0.375000 0.468750
0.500000 1.000000 -1.000000 0.000000 1.000000 -0.000000 0.375000 0.437500
0.250000 1.000000 -1.000000 0.000000 1.000000 -0.000000 0.375000 0.406250
-1.000000 -0.250000 -1.000000 -1.000000 0.000000 0.000000 0.375000 0.093750
-1.000000 -0.500000 -1.000000 -1.000000 0.000000 0.000000 0.375000 0.062500
-1.000000 0.000000 -1.000000 -1.000000 0.000000 0.000000 0.375000 0.125000
-1.000000 -0.750000 -1.000000 -1.000000 0.000000 0.000000 0.375000 0.031250
-1.000000 -1.000000 -1.000000 -1.000000 0.000000 0.000000 0.375000 0.000000
-1.000000 0.750000 -1.000000 -1.000000 0.000000 0.000000 0.375000 0.218750
-1.000000 0.500000 -1.000000 -1.000000 0.000000 0.000000 0.375000 0.187500
-1.000000 0.250000 -1.000000 -1.000000 0.000000 0.000000 0.375000 0.156250
3 0 1 2
3 3 4 5
3 6 7 8
3 9 10 11
3 12 13 14
3 15 16 17
3 0 18 1
3 3 19 4
3 6 20 7
3 9 21 10
3 12 22 13
3 15 23 16
3 24 25 26
3 24 27 25
3 28 29 30
3 31 32 33
3 31 34 32
3 35 36 37
3 38 39 40
3 38 41 39
3 42 43 44
3 45 46 47
3 45 48 46
3 49 50 51
3 52 53 54
3 52 55 53
3 56 57 58
3 59 60 61
3 59 62 60
3 63 64 65
3 66 67 68
3 66 69 67
3 24 26 70
3 71 72 73
3 71 74 72
3 31 33 75
3 76 77 78
3 76 79 77
3 38 40 80
3 81 82 83
3 81 84 82
3 45 47 85
3 86 87 88
3 86 89 87
3 52 54 90
3 91 92 93
3 91 94 92
3 59 61 95
3 96 97 98
3 96 99 97
3 100 101 102
3 103 104 105
3 103 106 104
3 107 108 109
3 110 111 112
3 110 113 111
3 103 105 114
3 115 116 117
3 115 118 116
3 119 120 121
3 122 123 124
3 122 125 123
3 126 127 128
3 129 130 131
3 129 132 130
3 122 124 133
3 134 135 136
3 134 137 135
3 138 139 140
3 141 142 143
3 141 144 142
3 145 146 147
3 148 149 150
3 148 151 149
3 141 143 152
3 153 154 155
3 153 156 154
3 157 158 159
3 160 161 162
3 160 163 161
3 164 165 166
3 167 168 169
3 167 170 168
3 160 162 171
3 172 173 174
3 172 175 173
3 176 177 178
3 179 180 181
3 179 182 180
3 183 184 185
3 186 187 188
3 186 189 187
3 179 181 190
3 191 192 193
3 191 194 192
3 195 196 197
3 198 199 200
3 198 201 199
3 202 203 204
3 205 206 207
3 205 208 206
3 198 200 209
3 210 211 212
3 210 213 211
3 214 215 216
3 217 218 219
3 217 220 218
3 221 222 223
3 100 224 101
3 100 225 224
3 217 219 226
3 227 228 229
3 227 230 228
3 231 232 233
3 234 235 236
3 234 237 235
3 238 239 240
3 119 241 120
3 119 242 241
3 234 236 243
3 244 245 246
3 244 247 245
3 248 249 250
3 251 252 253
3 251 254 252
3 255 256 257
3 138 258 139
3 138 259 258
3 251 253 260
3 261 262 263
3 261 264 262
3 265 266 267
3 268 269 270
3 268 271 269
3 272 273 274
3 157 275 158
3 157 276 275
3 268 270 277
3 278 279 280
3 278 281 279
3 282 283 284
3 285 286 287
3 285 288 286
3 289 290 291
3 176 292 177
3 176 293 292
3 285 287 294
3 295 296 297
3 295 298 296
3 299 300 301
3 302 303 304
3 302 305 303
3 306 307 308
3 195 309 196
3 195 310 309
3 302 304 311
3 312 313 314
3 312 315 313
3 316 317 318
3 319 320 321
3 319 322 320
3 323 324 325
3 326 327 328
3 326 329 327
3 330 331 332
3 333 334 335
3 333 336 334
3 337 338 339
3 340 341 342
3 340 343 341
3 344 345 346
3 347 348 349
3 347 350 348
3 351 352 353
3 354 355 356
3 354 357 355
3 312 314 358
3 359 360 361
3 359 362 360
3 319 321 363
3 364 365 366
3 364 367 365
3 326 328 368
3 369 370 371
3 369 372 370
3 333 335 373
3 374 375 376
3 374 377 375
3 340 342 378
3 379 380 381
3 379 382 380
3 347 349 383
3 383 108 107
3 383 349 108
3 349 59 108
3 380 383 107
3 380 382 383
3 382 347 383
3 381 94 91
3 381 380 94
3 380 107 94
3 378 127 126
3 378 342 127
3 342 52 127
3 375 378 126
3 375 377 378
3 377 340 378
3 376 89 86
3 376 375 89
3 375 126 89
3 373 146 145
3 373 335 146
3 335 45 146
3 370 373 145
3 370 372 373
3 372 333 373
3 371 84 81
3 371 370 84
3 370 145 84
3 368 165 164
3 368 328 165
3 328 38 165
3 365 368 164
3 365 367 368
3 367 326 368
3 366 79 76
3 366 365 79
3 365 164 79
3 363 184 183
3 363 321 184
3 321 31 184
3 360 363 183
3 360 362 363
3 362 319 363
3 361 74 71
3 361 360 74
3 360 183 74
3 358 203 202
3 358 314 203
3 314 24 203
3 355 358 202
3 355 357 358
3 357 312 358
3 356 69 66
3 356 355 69
3 355 202 69
3 353 222 221
3 353 352 222
3 352 63 222
3 348 353 221
3 348 350 353
3 350 351 353
3 349 62 59
3 349 348 62
3 348 221 62
3 346 239 238
3 346 345 239
3 345 56 239
3 341 346 238
3 341 343 346
3 343 344 346
3 342 55 52
3 342 341 55
3 341 238 55
3 339 256 255
3 339 338 256
3 338 49 256
3 334 339 255
3 334 336 339
3 336 337 339
3 335 48 45
3 335 334 48
3 334 255 48
3 332 273 272
3 332 331 273
3 331 42 273
3 327 332 272
3 327 329 332
3 329 330 332
3 328 41 38
3 328 327 41
3 327 272 41
3 325 290 289
3 325 324 290
3 324 35 290
3 320 325 289
3 320 322 325
3 322 323 325
3 321 34 31
3 321 320 34
3 320 289 34
3 318 307 306
3 318 317 307
3 317 28 307
3 313 318 306
3 313 315 318
3 315 316 318
3 314 27 24
3 314 313 27
3 313 306 27
3 311 384 385
3 311 304 384
3 304 386 384
3 309 311 385
3 309 310 311
3 310 302 311
3 196 387 388
3 196 309 387
3 309 385 387
3 308 30 295
3 308 307 30
3 307 28 30
3 303 308 295
3 303 305 308
3 305 306 308
3 304 297 386
3 304 303 297
3 303 295 297
3 301 389 390
3 301 300 389
3 300 391 389
3 296 301 390
3 296 298 301
3 298 299 301
3 297 392 386
3 297 296 392
3 296 390 392
3 294 393 394
3 294 287 393
3 287 395 393
3 292 294 394
3 292 293 294
3 293 285 294
3 177 396 397
3 177 292 396
3 292 394 396
3 291 37 278
3 291 290 37
3 290 35 37
3 286 291 278
3 286 288 291
3 288 289 291
3 287 280 395
3 287 286 280
3 286 278 280
3 284 398 399
3 284 283 398
3 283 400 398
3 279 284 399
3 279 281 284
3 281 282 284
3 280 401 395
3 280 279 401
3 279 399 401
3 277 402 403
3 277 270 402
3 270 404 402
3 275 277 403
3 275 276 277
3 276 268 277
3 158 405 406
3 158 275 405
3 275 403 405
3 274 44 261
3 274 273 44
3 273 42 44
3 269 274 261
3 269 271 274
3 271 272 274
3 270 263 404
3 270 269 263
3 269 261 263
3 267 407 408
3 267 266 407
3 266 409 407
3 262 267 408
3 262 264 267
3 264 265 267
3 263 410 404
3 263 262 410
3 262 408 410
3 260 411 412
3 260 253 411
3 253 413 411
3 258 260 412
3 258 259 260
3 259 251 260
3 139 414 415
3 139 258 414
3 258 412 414
3 257 51 244
3 257 256 51
3 256 49 51
3 252 257 244
3 252 254 257
3 254 255 257
3 253 246 413
3 253 252 246
3 252 244 246
3 250 416 417
3 250 249 416
3 249 418 416
3 245 250 417
3 245 247 250
3 247 248 250
3 246 419 413
3 246 245 419
3 245 417 419
3 243 420 421
3 243 236 420
3 236 422 420
3 241 243 421
3 241 242 243
3 242 234 243
3 120 423 424
3 120 241 423
3 241 421 423
3 240 58 227
3 240 239 58
3 239 56 58
3 235 240 227
3 235 237 240
3 237 238 240
3 236 229 422
3 236 235 229
3 235 227 229
3 233 425 426
3 233 232 425
3 232 427 425
3 228 233 426
3 228 230 233
3 230 231 233
3 229 428 422
3 229 228 428
3 228 426 428
3 226 429 430
3 226 219 429
3 219 431 429
3 224 226 430
3 224 225 226
3 225 217 226
3 101 432 433
3 101 224 432
3 224 430 432
3 223 65 210
3 223 222 65
3 222 63 65
3 218 223 210
3 218 220 223
3 220 221 223
3 219 212 431
3 219 218 212
3 218 210 212
3 216 434 435
3 216 215 434
3 215 436 434
3 211 216 435
3 211 213 216
3 213 214 216
3 212 437 431
3 212 211 437
3 211 435 437
3 209 438 439
3 209 200 438
3 200 440 438
3 206 209 439
3 206 208 209
3 208 198 209
3 207 441 442
3 207 206 441
3 206 439 441
3 204 70 191
3 204 203 70
3 203 24 70
3 199 204 191
3 199 201 204
3 201 202 204
3 200 193 440
3 200 199 193
3 199 191 193
3 197 443 444
3 197 196 443
3 196 388 443
3 192 197 444
3 192 194 197
3 194 195 197
3 193 445 440
3 193 192 445
3 192 444 445
3 190 446 447
3 190 181 446
3 181 448 446
3 187 190 447
3 187 189 190
3 189 179 190
3 188 449 450
3 188 187 449
3 187 447 449
3 185 75 172
3 185 184 75
3 184 31 75
3 180 185 172
3 180 182 185
3 182 183 185
3 181 174 448
3 181 180 174
3 180 172 174
3 178 451 452
3 178 177 451
3 177 397 451
3 173 178 452
3 173 175 178
3 175 176 178
3 174 453 448
3 174 173 453
3 173 452 453
3 171 454 455
3 171 162 454
3 162 456 454
3 168 171 455
3 168 170 171
3 170 160 171
3 169 457 458
3 169 168 457
3 168 455 457
3 166 80 153
3 166 165 80
3 165 38 80
3 161 166 153
3 161 163 166
3 163 164 166
3 162 155 456
3 162 161 155
3 161 153 155
3 159 459 460
3 159 158 459
3 158 406 459
3 154 159 460
3 154 156 159
3 156 157 159
3 155 461 456
3 155 154 461
3 154 460 461
3 152 462 463
3 152 143 462
3 143 464 462
3 149 152 463
3 149 151 152
3 151 141 152
3 150 465 466
3 150 149 465
3 149 463 465
3 147 85 134
3 147 146 85
3 146 45 85
3 142 147 134
3 142 144 147
3 144 145 147
3 143 136 464
3 143 142 136
3 142 134 136
3 140 467 468
3 140 139 467
3 139 415 467
3 135 140 468
3 135 137 140
3 137 138 140
3 136 469 464
3 136 135 469
3 135 468 469
3 133 470 471
3 133 124 470
3 124 472 470
3 130 133 471
3 130 132 133
3 132 122 133
3 131 473 474
3 131 130 473
3 130 471 473
3 128 90 115
3 128 127 90
3 127 52 90
3 123 128 115
3 123 125 128
3 125 126 128
3 124 117 472
3 124 123 117
3 123 115 117
3 121 475 476
3 121 120 475
3 120 424 475
3 116 121 476
3 116 118 121
3 118 119 121
3 117 477 472
3 117 116 477
3 116 476 477
3 114 478 479
3 114 105 478
3 105 480 478
3 111 114 479
3 111 113 114
3 113 103 114
3 112 481 482
3 112 111 481
3 111 479 481
3 109 95 96
3 109 108 95
3 108 59 95
3 104 109 96
3 104 106 109
3 106 107 109
3 105 98 480
3 105 104 98
3 104 96 98
3 102 483 484
3 102 101 483
3 101 433 483
3 97 102 484
3 97 99 102
3 99 100 102
3 98 485 480
3 98 97 485
3 97 484 485
3 95 99 96
3 95 61 99
3 61 100 99
3 92 106 103
3 92 94 106
3 94 107 106
3 93 113 110
3 93 92 113
3 92 103 113
3 90 118 115
3 90 54 118
3 54 119 118
3 87 125 122
3 87 89 125
3 89 126 125
3 88 132 129
3 88 87 132
3 87 122 132
3 85 137 134
3 85 47 137
3 47 138 137
3 82 144 141
3 82 84 144
3 84 145 144
3 83 151 148
3 83 82 151
3 82 141 151
3 80 156 153
3 80 40 156
3 40 157 156
3 77 163 160
3 77 79 163
3 79 164 163
3 78 170 167
3 78 77 170
3 77 160 170
3 75 175 172
3 75 33 175
3 33 176 175
3 72 182 179
3 72 74 182
3 74 183 182
3 73 189 186
3 73 72 189
3 72 179 189
3 70 194 191
3 70 26 194
3 26 195 194
3 67 201 198
3 67 69 201
3 69 202 201
3 68 208 205
3 68 67 208
3 67 198 208
3 65 213 210
3 65 64 213
3 64 214 213
3 60 220 217
3 60 62 220
3 62 221 220
3 61 225 100
3 61 60 225
3 60 217 225
3 58 230 227
3 58 57 230
3 57 231 230
3 53 237 234
3 53 55 237
3 55 238 237
3 54 242 119
3 54 53 242
3 53 234 242
3 51 247 244
3 51 50 247
3 50 248 247
3 46 254 251
3 46 48 254
3 48 255 254
3 47 259 138
3 47 46 259
3 46 251 259
3 44 264 261
3 44 43 264
3 43 265 264
3 39 271 268
3 39 41 271
3 41 272 271
3 40 276 157
3 40 39 276
3 39 268 276
3 37 281 278
3 37 36 281
3 36 282 281
3 32 288 285
3 32 34 288
3 34 289 288
3 33 293 176
3 33 32 293
3 32 285 293
3 30 298 295
3 30 29 298
3 29 299 298
3 25 305 302
3 25 27 305
3 27 306 305
3 26 310 195
3 26 25 310
3 25 302 310
3 16 315 312
3 16 23 315
3 23 316 315
3 13 322 319
3 13 22 322
3 22 323 322
3 10 329 326
3 10 21 329
3 21 330 329
3 7 336 333
3 7 20 336
3 20 337 336
3 4 343 340
3 4 19 343
3 19 344 343
3 1 350 347
3 1 18 350
3 18 351 350
3 17 357 354
3 17 16 357
3 16 312 357
3 14 362 359
3 14 13 362
3 13 319 362
3 11 367 364
3 11 10 367
3 10 326 367
3 8 372 369
3 8 7 372
3 7 333 372
3 5 377 374
3 5 4 377
3 4 340 377
3 2 382 379
3 2 1 382
3 1 347 382
